<?xml version="1.0" encoding="utf-8"?>
<!-- Generator: Adobe Illustrator 15.0.0, SVG Export Plug-In  -->
<!DOCTYPE svg PUBLIC "-//W3C//DTD SVG 1.1//EN" "http://www.w3.org/Graphics/SVG/1.1/DTD/svg11.dtd" [
	<!ENTITY ns_flows "http://ns.adobe.com/Flows/1.0/">
]>
<svg version="1.1"
	 xmlns="http://www.w3.org/2000/svg" xmlns:xlink="http://www.w3.org/1999/xlink" xmlns:a="http://ns.adobe.com/AdobeSVGViewerExtensions/3.0/"
	 x="0px" y="0px" width="800px" height="600px" viewBox="0 0 800 600" enable-background="new 0 0 800 600" xml:space="preserve">
<defs>
</defs>
<path fill="#3A3B3B" d="M11.499,26c-3.196,0-6.138-1.351-8.283-3.803C1.142,19.828,0,16.669,0,13.305C0,5.968,6.05,0,13.486,0
	c4.318,0,8.015,1.374,10.408,3.868c2.26,2.354,3.296,5.541,3.077,9.472c-0.11,1.995-0.491,4.284-2.476,4.284
	c-0.643,0-1.313-0.245-2.023-0.505c-0.741-0.271-1.509-0.553-2.245-0.553c-0.69,0-1.266,0.25-1.806,0.789
	c-0.613,0.609-0.478,1.585-0.321,2.716c0.177,1.269,0.376,2.707-0.548,3.896c-0.791,1.018-2.288,1.652-4.573,1.94
	C12.485,25.968,11.987,26,11.5,26C11.5,26,11.5,26,11.499,26z M13.486,1.267c-6.728,0-12.202,5.4-12.202,12.039
	c0,3.061,1.031,5.925,2.903,8.065c1.897,2.169,4.494,3.363,7.312,3.363c0,0,0,0,0.001,0c0.434,0,0.876-0.028,1.317-0.083
	c1.902-0.239,3.151-0.729,3.717-1.454c0.598-0.771,0.45-1.83,0.295-2.954c-0.178-1.278-0.379-2.727,0.681-3.779
	c0.776-0.771,1.691-1.163,2.718-1.163c0.966,0,1.883,0.335,2.691,0.631c0.6,0.22,1.165,0.427,1.576,0.427
	c0.28,0,1.023,0,1.195-3.087c0.197-3.57-0.72-6.44-2.729-8.532C20.813,2.5,17.448,1.267,13.486,1.267z"/>
<path fill="#3A3B3B" d="M20.499,13.938c-1.426,0-2.586-1.144-2.586-2.551c0-1.406,1.16-2.552,2.586-2.552s2.586,1.146,2.586,2.552
	C23.084,12.794,21.924,13.938,20.499,13.938z M20.499,10.102c-0.718,0-1.303,0.577-1.303,1.285c0,0.708,0.585,1.285,1.303,1.285
	s1.303-0.577,1.303-1.285C21.801,10.678,21.216,10.102,20.499,10.102z"/>
<path fill="#3A3B3B" d="M15.078,8.824c-1.426,0-2.586-1.146-2.586-2.552c0-1.407,1.16-2.551,2.586-2.551
	c1.427,0,2.586,1.145,2.586,2.551C17.664,7.678,16.504,8.824,15.078,8.824z M15.078,4.987c-0.718,0-1.303,0.577-1.303,1.285
	c0,0.708,0.585,1.285,1.303,1.285c0.719,0,1.302-0.577,1.302-1.285S15.795,4.987,15.078,4.987z"/>
<path fill="#3A3B3B" d="M8.479,11.264c-1.426,0-2.586-1.145-2.586-2.55c0-1.407,1.16-2.552,2.586-2.552
	c1.426,0,2.585,1.145,2.585,2.552C11.064,10.121,9.905,11.264,8.479,11.264z M8.479,7.429c-0.719,0-1.303,0.576-1.303,1.285
	c0,0.708,0.584,1.284,1.303,1.284c0.718,0,1.302-0.576,1.302-1.284C9.781,8.005,9.197,7.429,8.479,7.429z"/>
<path fill="#3A3B3B" d="M5.179,17.425c-1.426,0-2.586-1.145-2.586-2.552c0-1.406,1.16-2.551,2.586-2.551
	c1.426,0,2.586,1.145,2.586,2.551C7.765,16.281,6.605,17.425,5.179,17.425z M5.179,13.589c-0.718,0-1.303,0.577-1.303,1.285
	c0,0.709,0.585,1.285,1.303,1.285s1.302-0.576,1.302-1.285C6.482,14.166,5.897,13.589,5.179,13.589z"/>
<path fill="#3A3B3B" d="M11.189,21.843c-1.426,0-2.586-1.146-2.586-2.552s1.161-2.551,2.586-2.551c1.425,0,2.585,1.145,2.585,2.551
	S12.615,21.843,11.189,21.843z M11.189,18.007c-0.718,0-1.302,0.576-1.302,1.284s0.584,1.284,1.302,1.284s1.302-0.576,1.302-1.284
	S11.907,18.007,11.189,18.007z"/>
</svg>
