<?xml version="1.0" encoding="utf-8"?>
<!-- Generator: Adobe Illustrator 15.0.0, SVG Export Plug-In  -->
<!DOCTYPE svg PUBLIC "-//W3C//DTD SVG 1.1//EN" "http://www.w3.org/Graphics/SVG/1.1/DTD/svg11.dtd" [
	<!ENTITY ns_flows "http://ns.adobe.com/Flows/1.0/">
]>
<svg version="1.1"
	 xmlns="http://www.w3.org/2000/svg" xmlns:xlink="http://www.w3.org/1999/xlink" xmlns:a="http://ns.adobe.com/AdobeSVGViewerExtensions/3.0/"
	 x="0px" y="0px" width="800px" height="600px" viewBox="0 0 800 600" enable-background="new 0 0 800 600" xml:space="preserve">
<defs>
</defs>
<path fill="#2B2B2B" d="M2.688,5.675C1.206,5.675,0,4.402,0,2.838C0,1.273,1.206,0,2.688,0s2.688,1.273,2.688,2.838
	C5.376,4.402,4.17,5.675,2.688,5.675z M2.688,1.781c-0.552,0-1,0.474-1,1.057c0,0.582,0.449,1.056,1,1.056s1-0.474,1-1.056
	C3.688,2.255,3.24,1.781,2.688,1.781z"/>
<path fill="#2B2B2B" d="M18.156,3.728H6.993c-0.466,0-0.844-0.399-0.844-0.89c0-0.492,0.378-0.891,0.844-0.891h11.164
	C18.622,1.947,19,2.346,19,2.838C19,3.329,18.622,3.728,18.156,3.728z"/>
<path fill="#2B2B2B" d="M2.688,13.338C1.206,13.338,0,12.065,0,10.5s1.206-2.838,2.688-2.838S5.376,8.935,5.376,10.5
	S4.17,13.338,2.688,13.338z M2.688,9.443c-0.552,0-1,0.474-1,1.057s0.449,1.057,1,1.057s1-0.474,1-1.057S3.24,9.443,2.688,9.443z"/>
<path fill="#2B2B2B" d="M18.156,11.391H6.993c-0.466,0-0.844-0.399-0.844-0.891s0.378-0.891,0.844-0.891h11.164
	C18.622,9.609,19,10.008,19,10.5S18.622,11.391,18.156,11.391z"/>
<path fill="#2B2B2B" d="M2.688,21C1.206,21,0,19.727,0,18.163c0-1.565,1.206-2.838,2.688-2.838s2.688,1.273,2.688,2.838
	C5.376,19.727,4.17,21,2.688,21z M2.688,17.106c-0.552,0-1,0.474-1,1.057c0,0.582,0.449,1.056,1,1.056s1-0.474,1-1.056
	C3.688,17.58,3.24,17.106,2.688,17.106z"/>
<path fill="#2B2B2B" d="M18.156,19.054H6.993c-0.466,0-0.844-0.399-0.844-0.891s0.378-0.891,0.844-0.891h11.164
	c0.466,0,0.844,0.399,0.844,0.891S18.622,19.054,18.156,19.054z"/>
</svg>
