<svg xmlns="http://www.w3.org/2000/svg" width="20.031" height="20.063" viewBox="0 0 20.031 20.063">
  <defs>
    <style>
      .cls-1 {
        fill-rule: evenodd;
      }
    </style>
  </defs>
  <path id="star" class="cls-1" d="M20.466,7.6a1.456,1.456,0,0,0-1.156-.978l-5.217-.8L11.825,0.959A1.444,1.444,0,0,0,9.2.959L6.935,5.822l-5.218.8A1.459,1.459,0,0,0,.9,9.08l3.823,3.943-0.887,5.47a1.46,1.46,0,0,0,.594,1.426A1.44,1.44,0,0,0,5.966,20l4.549-2.53L15.063,20a1.44,1.44,0,0,0,1.535-.085,1.461,1.461,0,0,0,.594-1.426L16.3,13.023,20.129,9.08A1.465,1.465,0,0,0,20.466,7.6Zm-5.327,4.36a1.429,1.429,0,0,0-.382,1.221l0.863,5.336L11.2,16.052a1.4,1.4,0,0,0-1.363,0L5.408,18.518l0.863-5.336a1.428,1.428,0,0,0-.382-1.221L2.17,8.114l5.074-.783a1.41,1.41,0,0,0,1.062-.8l2.207-4.743,2.207,4.744a1.412,1.412,0,0,0,1.061.8l5.076,0.783Z" transform="translate(-0.5 -0.125)"/>
</svg>
