<?xml version="1.0" encoding="utf-8"?>
<!-- Generator: Adobe Illustrator 15.0.0, SVG Export Plug-In  -->
<!DOCTYPE svg PUBLIC "-//W3C//DTD SVG 1.1//EN" "http://www.w3.org/Graphics/SVG/1.1/DTD/svg11.dtd" [
	<!ENTITY ns_flows "http://ns.adobe.com/Flows/1.0/">
]>
<svg version="1.1"
	 xmlns="http://www.w3.org/2000/svg" xmlns:xlink="http://www.w3.org/1999/xlink" xmlns:a="http://ns.adobe.com/AdobeSVGViewerExtensions/3.0/"
	 x="0px" y="0px" width="800px" height="600px" viewBox="0 0 800 600" enable-background="new 0 0 800 600" xml:space="preserve">
<defs>
</defs>
<path fill="#2B2B2B" d="M19.233,4.965c-0.042-0.13-0.107-0.255-0.222-0.353l-5.16-4.413c-0.335-0.287-0.851-0.26-1.15,0.062
	c-0.3,0.32-0.272,0.813,0.064,1.1l4.19,3.584H5.043l4.191-3.585c0.336-0.287,0.364-0.779,0.064-1.1
	c-0.299-0.321-0.814-0.348-1.15-0.062l-5.16,4.413c-0.114,0.098-0.18,0.223-0.222,0.353C1.212,5.135,0,6.399,0,7.929
	c0,1.374,0.987,2.541,2.32,2.882l0.561,5.896C3.053,18.522,4.747,20,6.655,20h8.691c1.908,0,3.601-1.478,3.773-3.293l0.561-5.896
	C21.012,10.47,22,9.303,22,7.929C22,6.398,20.788,5.135,19.233,4.965z M18.891,9.355c-0.448,0.004-0.809,0.354-0.807,0.783
	l0.006,0.175l-0.595,6.252c-0.096,1.017-1.082,1.877-2.15,1.877H6.654c-1.069,0-2.055-0.859-2.151-1.877l-0.594-6.249
	c0-0.021,0.001-0.042,0.002-0.063l0.004-0.111c0.002-0.206-0.081-0.406-0.233-0.554C3.531,9.441,3.324,9.357,3.108,9.355
	C2.293,9.347,1.629,8.708,1.629,7.929c0-0.788,0.67-1.428,1.494-1.428h15.752c0.824,0,1.494,0.64,1.494,1.428
	C20.37,8.708,19.706,9.347,18.891,9.355z"/>
<path fill="#2B2B2B" d="M8.284,10.903c-0.45,0-0.815,0.348-0.815,0.779v2.077c0,0.431,0.365,0.779,0.815,0.779
	s0.815-0.348,0.815-0.779v-2.077C9.099,11.252,8.733,10.903,8.284,10.903z"/>
<path fill="#2B2B2B" d="M13.716,10.903c-0.451,0-0.815,0.348-0.815,0.779v2.077c0,0.431,0.364,0.779,0.815,0.779
	c0.45,0,0.814-0.348,0.814-0.779v-2.077C14.53,11.252,14.166,10.903,13.716,10.903z"/>
</svg>
