<?xml version="1.0" encoding="utf-8"?>
<!-- Generator: Adobe Illustrator 15.0.0, SVG Export Plug-In  -->
<!DOCTYPE svg PUBLIC "-//W3C//DTD SVG 1.1//EN" "http://www.w3.org/Graphics/SVG/1.1/DTD/svg11.dtd" [
	<!ENTITY ns_flows "http://ns.adobe.com/Flows/1.0/">
]>
<svg version="1.1"
	 xmlns="http://www.w3.org/2000/svg" xmlns:xlink="http://www.w3.org/1999/xlink" xmlns:a="http://ns.adobe.com/AdobeSVGViewerExtensions/3.0/"
	 x="0" y="0" width="595px" height="842px" viewBox="0 0 595 842" enable-background="new 0 0 595 842" xml:space="preserve">
<defs>
</defs>
<path fill="#2b2b2b" d="M35.391,29.002h-3.695V1.5c0-0.828-0.672-1.5-1.5-1.5H1.5C0.671,0,0,0.672,0,1.5v29.525
	c0,3.688,2.201,6.989,5.607,8.411c0.183,0.076,0.379,0.115,0.578,0.115h2.562c0,0,0,0,0,0l0,0h21.448h0.511
	c0.198,0,0.395-0.039,0.577-0.115c3.406-1.421,5.607-4.722,5.607-8.411v-0.523C36.891,29.674,36.219,29.002,35.391,29.002z
	 M3,31.025V3h25.696v26.002H13.433h0c-0.829,0-1.5,0.672-1.5,1.5v0.523c0,0.305-0.023,0.605-0.067,0.9
	c-0.012,0.08-0.037,0.157-0.052,0.237c-0.04,0.211-0.08,0.421-0.141,0.624c-0.031,0.104-0.077,0.202-0.113,0.305
	c-0.062,0.172-0.121,0.345-0.197,0.51c-0.051,0.109-0.115,0.212-0.172,0.318c-0.08,0.148-0.158,0.298-0.25,0.439
	c-0.069,0.106-0.15,0.204-0.226,0.307c-0.097,0.13-0.191,0.262-0.298,0.384c-0.086,0.099-0.183,0.188-0.276,0.281
	c-0.112,0.112-0.223,0.227-0.344,0.33c-0.103,0.087-0.213,0.165-0.322,0.246c-0.127,0.095-0.253,0.19-0.388,0.275
	c-0.116,0.073-0.24,0.138-0.362,0.204c-0.107,0.058-0.215,0.113-0.326,0.165H6.502C4.366,35.543,3,33.403,3,31.025z M30.389,36.552
	h-0.193H13.07c0.01-0.014,0.018-0.029,0.029-0.043c0.144-0.191,0.267-0.397,0.396-0.599c0.089-0.141,0.188-0.272,0.27-0.417
	c0.126-0.225,0.229-0.462,0.335-0.697c0.061-0.135,0.134-0.263,0.189-0.4c0.111-0.28,0.196-0.572,0.279-0.864
	c0.029-0.102,0.071-0.199,0.097-0.303c0.099-0.4,0.173-0.81,0.217-1.227h15.314h3.617C33.497,33.978,32.229,35.684,30.389,36.552z"
	/>
<path fill="#2b2b2b" d="M9.433,14.475h6c0.829,0,1.5-0.672,1.5-1.5s-0.671-1.5-1.5-1.5h-6c-0.829,0-1.5,0.672-1.5,1.5
	S8.604,14.475,9.433,14.475z"/>
</svg>
