<svg xmlns="http://www.w3.org/2000/svg" width="15.125" height="20.594" viewBox="0 0 15.125 20.594">
  <defs>
    <style>
      .cls-1 {
        fill-rule: evenodd;
      }
    </style>
  </defs>
  <path id="user" class="cls-1" d="M14.119,21.452c-0.44-3.733-1.995-6.87-5.865-6.87s-5.425,3.137-5.866,6.87h-1.7c0.56-4.659,2.752-8.588,7.569-8.588s7.009,3.929,7.569,8.588h-1.7ZM8.254,11.147A5.153,5.153,0,1,1,13.4,5.994,5.151,5.151,0,0,1,8.254,11.147Zm0-8.588a3.435,3.435,0,1,0,3.433,3.435A3.434,3.434,0,0,0,8.254,2.559Z" transform="translate(-0.688 -0.844)"/>
</svg>
