<?xml version="1.0" encoding="utf-8"?>
<!-- Generator: Adobe Illustrator 15.0.0, SVG Export Plug-In  -->
<!DOCTYPE svg PUBLIC "-//W3C//DTD SVG 1.1//EN" "http://www.w3.org/Graphics/SVG/1.1/DTD/svg11.dtd" [
	<!ENTITY ns_flows "http://ns.adobe.com/Flows/1.0/">
]>
<svg version="1.1"
	 xmlns="http://www.w3.org/2000/svg" xmlns:xlink="http://www.w3.org/1999/xlink" xmlns:a="http://ns.adobe.com/AdobeSVGViewerExtensions/3.0/"
	 x="0px" y="0px" width="595px" height="842px" viewBox="0 0 595 842" enable-background="new 0 0 595 842" xml:space="preserve">
<defs>
</defs>
<path fill="#2B2B2B" d="M14.648,19H6.352c-1.822,0-3.438-1.403-3.603-3.129l-0.535-5.601C0.942,9.946,0,8.838,0,7.532
	c0-1.563,1.337-2.836,2.981-2.836h15.037C19.663,4.696,21,5.969,21,7.532c0,1.306-0.942,2.415-2.215,2.739l-0.535,5.6
	C18.085,17.597,16.469,19,14.648,19z M2.981,6.176c-0.786,0-1.426,0.608-1.426,1.356c0,0.739,0.633,1.348,1.412,1.354
	c0.207,0.002,0.404,0.082,0.548,0.223S3.74,9.438,3.737,9.636L3.734,9.741C3.733,9.761,3.73,9.78,3.731,9.801l0.567,5.937
	c0.092,0.967,1.033,1.783,2.054,1.783h8.296c1.021,0,1.96-0.816,2.053-1.783l0.568-5.939l-0.006-0.167
	c-0.003-0.407,0.342-0.74,0.77-0.744c0.778-0.007,1.412-0.615,1.412-1.354c0-0.748-0.64-1.356-1.426-1.356H2.981z"/>
<path fill="#2B2B2B" d="M3.371,5.673c-0.214,0-0.427-0.083-0.58-0.247C2.504,5.121,2.531,4.653,2.852,4.381l4.926-4.192
	C8.098-0.084,8.59-0.058,8.875,0.247c0.287,0.305,0.259,0.771-0.061,1.044L3.889,5.484C3.74,5.61,3.555,5.673,3.371,5.673z"/>
<path fill="#2B2B2B" d="M17.629,5.673c-0.185,0-0.37-0.063-0.518-0.188l-4.926-4.193c-0.32-0.272-0.348-0.739-0.061-1.044
	c0.286-0.305,0.778-0.331,1.098-0.059l4.926,4.192c0.32,0.272,0.348,0.74,0.061,1.045C18.056,5.59,17.843,5.673,17.629,5.673z"/>
<path fill="#2B2B2B" d="M7.907,13.811c-0.43,0-0.778-0.331-0.778-0.739v-1.974c0-0.408,0.348-0.739,0.778-0.739
	s0.778,0.331,0.778,0.739v1.974C8.685,13.479,8.337,13.811,7.907,13.811z"/>
<path fill="#2B2B2B" d="M13.093,13.811c-0.43,0-0.778-0.331-0.778-0.739v-1.974c0-0.408,0.348-0.739,0.778-0.739
	s0.778,0.331,0.778,0.739v1.974C13.871,13.479,13.522,13.811,13.093,13.811z"/>
</svg>
