<svg xmlns="http://www.w3.org/2000/svg" width="20.844" height="20.813" viewBox="0 0 20.844 20.813">
  <defs>
    <style>
      .cls-1 {
        fill-rule: evenodd;
      }
    </style>
  </defs>
  <path id="gear" class="cls-1" d="M21.674,12.386a1.27,1.27,0,0,1-1.257,1.127l-0.076,0-0.093,0a1.418,1.418,0,0,0-1.289.859,1.4,1.4,0,0,0,.356,1.581,1.277,1.277,0,0,1,.137,1.744,10.382,10.382,0,0,1-1.683,1.665,1.276,1.276,0,0,1-1.727-.143,1.5,1.5,0,0,0-1.086-.451,1.3,1.3,0,0,0-.487.091,1.409,1.409,0,0,0-.865,1.353,1.282,1.282,0,0,1-1.134,1.313,10.361,10.361,0,0,1-2.341-.007,1.274,1.274,0,0,1-1.124-1.341A1.406,1.406,0,0,0,8.149,18.8a1.286,1.286,0,0,0-.5-0.095,1.493,1.493,0,0,0-1.084.451,1.273,1.273,0,0,1-1.744.138A10.305,10.305,0,0,1,3.18,17.626,1.279,1.279,0,0,1,3.32,15.9a1.412,1.412,0,0,0,.357-1.569,1.386,1.386,0,0,0-1.257-.868H2.37A1.37,1.37,0,0,1,1,12.331a10.382,10.382,0,0,1,0-2.367,1.262,1.262,0,0,1,1.3-1.127,1.5,1.5,0,0,0,1.415-.855A1.405,1.405,0,0,0,3.367,6.4,1.278,1.278,0,0,1,3.23,4.658,10.319,10.319,0,0,1,4.912,2.992a1.275,1.275,0,0,1,1.729.145,1.5,1.5,0,0,0,1.085.449A1.294,1.294,0,0,0,8.211,3.5a1.414,1.414,0,0,0,.866-1.355A1.281,1.281,0,0,1,10.211.829a10.407,10.407,0,0,1,2.341.006,1.275,1.275,0,0,1,1.125,1.341,1.408,1.408,0,0,0,.855,1.376,1.3,1.3,0,0,0,.5.093A1.489,1.489,0,0,0,16.11,3.2a1.275,1.275,0,0,1,1.743-.14A10.27,10.27,0,0,1,19.5,4.722a1.28,1.28,0,0,1-.14,1.73,1.4,1.4,0,0,0,.964,2.435,1.362,1.362,0,0,1,1.354,1.131A10.386,10.386,0,0,1,21.674,12.386Zm-1.711-2.015A2.789,2.789,0,0,1,18.02,5.646a8.571,8.571,0,0,0-1.128-1.14,2.9,2.9,0,0,1-1.984.776,2.668,2.668,0,0,1-1.034-.2,2.8,2.8,0,0,1-1.711-2.556,8.67,8.67,0,0,0-1.6,0A2.613,2.613,0,0,1,8.769,4.861a2.576,2.576,0,0,1-.951.362A2.91,2.91,0,0,1,5.833,4.45,8.606,8.606,0,0,0,4.677,5.593a2.8,2.8,0,0,1,.571,3.022A2.868,2.868,0,0,1,2.7,10.32a8.7,8.7,0,0,0,0,1.63,2.791,2.791,0,0,1,1.943,4.727,8.6,8.6,0,0,0,1.127,1.141,2.9,2.9,0,0,1,1.985-.777,2.659,2.659,0,0,1,1.034.2A2.8,2.8,0,0,1,10.493,19.8a8.653,8.653,0,0,0,1.6,0,2.806,2.806,0,0,1,1.729-2.509A2.669,2.669,0,0,1,14.84,17.1a2.912,2.912,0,0,1,1.983.774,8.648,8.648,0,0,0,1.156-1.143,2.8,2.8,0,0,1-.573-3.022A2.826,2.826,0,0,1,19.96,12,8.644,8.644,0,0,0,19.962,10.371Zm-8.619,4.273A3.475,3.475,0,1,1,14.8,11.169,3.471,3.471,0,0,1,11.343,14.644Zm0-5.2a1.735,1.735,0,1,0,1.739,1.735A1.739,1.739,0,0,0,11.342,9.447Z" transform="translate(-0.938 -0.781)"/>
</svg>
