<svg xmlns="http://www.w3.org/2000/svg" width="24.906" height="22.156" viewBox="0 0 24.906 22.156">
  <defs>
    <style>
      .cls-1 {
        fill: #101010;
        fill-rule: evenodd;
      }
    </style>
  </defs>
  <path id="arrow-flip-1" class="cls-1" d="M23.285,5.954L22.118,8.873a11.073,11.073,0,1,0-.934,7.188l-1.673-.669,0.008-.128a9.247,9.247,0,1,1,.894-5.483L17.277,8.527a0.924,0.924,0,1,0-.686,1.716l5.151,2.06a0.924,0.924,0,0,0,1.2-.514L25,6.641A0.924,0.924,0,0,0,23.285,5.954ZM11.76,16.688L8.251,13.176A1.229,1.229,0,0,1,7.9,12.25V6.285a1.194,1.194,0,1,1,2.389,0V11.7l3.231,3.232A1.242,1.242,0,1,1,11.76,16.688Z" transform="translate(-0.188 -0.031)"/>
</svg>
